<svg width="50" height="50" viewBox="0 0 50 50" fill="none" xmlns="http://www.w3.org/2000/svg">
<path d="M40.6319 26.5625C40.6319 23.4722 39.7155 20.4512 37.9986 17.8817C36.2817 15.3122 33.8414 13.3095 30.9863 12.1269C28.1312 10.9443 24.9895 10.6348 21.9586 11.2377C18.9276 11.8406 16.1435 13.3288 13.9583 15.514C11.7731 17.6992 10.285 20.4833 9.68208 23.5142C9.07919 26.5452 9.38862 29.6868 10.5712 32.5419C11.7539 35.397 13.7566 37.8373 16.3261 39.5542C18.8956 41.2711 21.9165 42.1875 25.0069 42.1875C29.1509 42.1875 33.1251 40.5413 36.0554 37.611C38.9857 34.6808 40.6319 30.7065 40.6319 26.5625ZM13.8789 8.90723C13.059 8.20559 12.0167 7.81766 10.9375 7.8125L10.6651 7.82031C8.16994 7.9707 6.25002 10.1562 6.25685 12.793C6.25685 14.083 6.71193 14.6846 7.31935 15.4521C7.35709 15.5015 7.40474 15.5423 7.45924 15.5721C7.51374 15.6019 7.57387 15.6199 7.63576 15.625H7.7217C7.77009 15.6241 7.81763 15.6121 7.86064 15.59C7.90365 15.5678 7.94098 15.536 7.96974 15.4971L13.9043 9.66797C13.955 9.61672 13.9946 9.5556 14.0206 9.4884C14.0467 9.42119 14.0586 9.34935 14.0557 9.27734C14.0532 9.20682 14.0363 9.13756 14.0058 9.07388C13.9754 9.0102 13.9322 8.95347 13.8789 8.90723ZM36.1211 8.90723C36.9411 8.20559 37.9834 7.81766 39.0625 7.8125L39.335 7.82031C41.8301 7.9707 43.75 10.1562 43.7432 12.793C43.7432 14.083 43.2881 14.6846 42.6807 15.4521C42.6429 15.5013 42.5952 15.542 42.5407 15.5716C42.4862 15.6012 42.4261 15.619 42.3643 15.624H42.2783C42.2299 15.6232 42.1824 15.6112 42.1394 15.589C42.0964 15.5668 42.0591 15.535 42.0303 15.4961L36.0957 9.66797C36.045 9.61672 36.0055 9.5556 35.9794 9.4884C35.9534 9.42119 35.9414 9.34935 35.9444 9.27734C35.9468 9.20682 35.9638 9.13756 35.9942 9.07388C36.0246 9.0102 36.0678 8.95347 36.1211 8.90723Z" stroke="#3FD191" stroke-width="3.125" stroke-miterlimit="10"/>
<path d="M25.0068 15.625V26.5625H17.1943M40.6318 42.1875L36.7256 38.2812M9.38184 42.1875L13.2881 38.2812" stroke="#3FD191" stroke-width="3.125" stroke-linecap="round" stroke-linejoin="round"/>
</svg>
