<svg width="50" height="50" viewBox="0 0 50 50" fill="none" xmlns="http://www.w3.org/2000/svg">
<path d="M25 29.6875C31.4721 29.6875 36.7188 24.4408 36.7188 17.9688C36.7188 11.4967 31.4721 6.25 25 6.25C18.5279 6.25 13.2812 11.4967 13.2812 17.9688C13.2812 24.4408 18.5279 29.6875 25 29.6875Z" stroke="#3FD191" stroke-width="3.125" stroke-linejoin="round"/>
<path d="M33.5938 43.75C40.0658 43.75 45.3125 38.5033 45.3125 32.0312C45.3125 25.5592 40.0658 20.3125 33.5938 20.3125C27.1217 20.3125 21.875 25.5592 21.875 32.0312C21.875 38.5033 27.1217 43.75 33.5938 43.75Z" stroke="#3FD191" stroke-width="3.125" stroke-linejoin="round"/>
<path d="M16.4062 43.75C22.8783 43.75 28.125 38.5033 28.125 32.0312C28.125 25.5592 22.8783 20.3125 16.4062 20.3125C9.93416 20.3125 4.6875 25.5592 4.6875 32.0312C4.6875 38.5033 9.93416 43.75 16.4062 43.75Z" stroke="#3FD191" stroke-width="3.125" stroke-linejoin="round"/>
</svg>
