<svg width="50" height="50" viewBox="0 0 50 50" fill="none" xmlns="http://www.w3.org/2000/svg">
<path d="M45.3125 25C45.3125 13.7822 36.2178 4.6875 25 4.6875C13.7822 4.6875 4.6875 13.7822 4.6875 25C4.6875 36.2178 13.7822 45.3125 25 45.3125C36.2178 45.3125 45.3125 36.2178 45.3125 25Z" stroke="#F99948" stroke-width="3.125" stroke-miterlimit="10"/>
<path d="M43.5127 16.8105C41.9443 16.8203 42.0986 19.7138 40.1445 18.3486C39.419 17.8427 38.9727 17.1074 38.0615 16.8837C37.2656 16.6884 36.4502 16.8916 35.6641 17.0273C34.7705 17.1816 33.7109 17.2509 33.0332 17.9277C32.3779 18.5791 32.0313 19.4531 31.334 20.1084C29.9854 21.3779 29.416 22.7636 30.2891 24.5585C31.1289 26.2841 32.8858 27.2207 34.7813 27.0976C36.6436 26.9736 38.5781 25.8935 38.5244 28.5996C38.5049 29.5566 38.7051 30.2207 38.999 31.1103C39.2715 31.9306 39.2529 32.7255 39.3154 33.5722C39.4307 35.1542 39.7217 36.9277 40.5068 38.3251L41.9717 36.2587C42.1524 36.0029 42.5303 35.6445 42.6201 35.3427C42.7793 34.8085 42.4658 33.8906 42.4297 33.2919C42.3936 32.6933 42.4111 32.0869 42.3193 31.4882C42.1904 30.6494 41.6943 29.8632 41.626 29.0341C41.5 27.4902 41.7822 26.2578 40.5928 24.9667C39.4443 23.7216 37.7608 23.4228 36.1524 23.6757C35.3418 23.8027 32.0791 24.3242 33.3887 22.4716C33.6475 22.1074 34.0996 21.8085 34.3906 21.4619C34.6436 21.1601 34.8633 20.6054 35.1602 20.3701C35.457 20.1347 36.8203 19.8642 37.2109 19.9843C37.6016 20.1044 38.0088 20.6679 38.3477 20.9179C38.9738 21.3895 39.7044 21.7031 40.4775 21.832C41.8115 22.0273 44.6006 21.2519 44.5791 19.541C44.5752 18.7207 43.8135 17.5781 43.5127 16.8105ZM28.0713 30.8886C27.5508 28.6972 24.5733 27.9648 22.9678 26.7763C22.0449 26.0927 21.2236 25.0371 20.0117 24.9511C19.4531 24.9111 18.9854 25.0322 18.4317 24.8886C17.9238 24.7578 17.5254 24.4843 16.9844 24.5556C15.9736 24.6884 15.3359 25.7685 14.25 25.622C13.2197 25.4834 12.1582 24.2783 11.9238 23.2968C11.6231 22.0351 12.6211 21.6259 13.6904 21.5136C14.1367 21.4667 14.6377 21.416 15.0664 21.5791C15.6309 21.789 15.8975 22.3417 16.4043 22.621C17.3545 23.1416 17.5469 22.3095 17.4014 21.4658C17.1836 20.2021 16.9297 19.6865 18.0566 18.8173C18.8379 18.2177 19.5059 17.7841 19.3809 16.707C19.3067 16.0742 18.96 15.788 19.2832 15.1582C19.5283 14.6787 20.2012 14.246 20.6397 13.9599C21.7715 13.2216 25.4883 13.2763 23.9697 11.2099C23.5234 10.6035 22.7002 9.51948 21.919 9.37105C20.9424 9.18648 20.5088 10.2763 19.8281 10.7568C19.125 11.2539 17.7559 11.8183 17.0518 11.0498C16.1045 10.0156 17.6797 9.67573 18.0283 8.95405C18.377 8.23237 17.2207 6.86812 16.6016 6.52241L13.6904 9.78706C13.6068 10.3338 13.6359 10.8919 13.776 11.4269C13.9161 11.962 14.1641 12.4628 14.5049 12.8984C15.084 13.6435 16.0059 13.8828 16.0479 14.9003C16.0889 15.8769 15.9365 16.3769 15.2979 17.0634C15.0215 17.3564 14.8262 17.7724 14.5449 18.0468C14.2002 18.3818 14.3281 18.2792 13.79 18.371C12.7783 18.5419 11.917 18.8056 10.9395 19.0751C9.31056 19.5253 9.16017 16.8642 8.41798 15.8203L5.97657 17.7919C5.95021 18.1152 6.37696 18.7099 6.49317 19.0615C7.16017 21.0703 8.50587 22.624 9.37501 24.5459C10.29 26.581 12.7471 26.0166 13.832 27.7998C14.7949 29.3818 13.7666 31.3847 14.4873 33.041C15.0108 34.2431 16.2451 34.5058 17.0967 35.3847C17.9668 36.2724 17.9483 37.4873 18.0811 38.6425C18.2308 40.0014 18.4739 41.3483 18.8086 42.6738C18.9268 43.1318 19.0352 43.7373 19.3486 44.1152C19.5635 44.375 20.3008 44.5986 20.0029 44.6845C20.419 44.7529 21.1602 45.1416 21.5068 44.8564C21.9639 44.4814 21.8418 43.3271 21.9209 42.8056C22.1582 41.2529 22.9356 39.7343 23.9844 38.5722C25.0205 37.4257 26.4404 36.6494 27.3154 35.3496C28.168 34.082 28.4248 32.372 28.0713 30.8886ZM24.8106 33.4589C24.2246 34.5048 22.9199 35.205 22.0811 36.0361C21.8535 36.2617 21.3691 37.0429 21.084 36.874C20.8799 36.7529 20.8106 35.7392 20.7354 35.5068C20.3474 34.3364 19.6069 33.3148 18.6152 32.582C18.3096 32.3505 17.5518 32.0498 17.377 31.7324C17.1817 31.3876 17.3574 30.5742 17.3643 30.1992C17.375 29.6523 17.126 28.7431 17.2608 28.246C17.417 27.6728 17.1162 28.0185 17.6289 27.9052C17.8994 27.8447 19.0166 28.041 19.3535 28.1113C19.8887 28.2226 20.1836 28.5556 20.6055 28.8925C21.7149 29.7822 22.9365 30.4707 24.1797 31.1523C25.1426 31.6855 25.4258 32.3603 24.8106 33.4589ZM18.0137 6.55171C18.4766 7.00386 18.9121 7.53902 19.6025 7.58394C20.2559 7.62788 20.8721 7.27437 21.4424 7.7187C22.0752 8.20698 22.5313 8.82515 23.3711 8.97749C24.1836 9.12495 25.044 8.65034 25.2451 7.81929C25.4404 7.0273 25.0195 6.16597 24.9942 5.37105C24.9942 5.26069 25.0537 4.77046 24.9775 4.68745C24.9209 4.62495 24.4483 4.69526 24.376 4.69722C23.8467 4.71284 23.3187 4.7493 22.792 4.80659C20.8719 5.01442 18.9915 5.4962 17.208 6.23726C17.4453 6.40132 17.7432 6.46675 18.0137 6.55171ZM34.8047 12.038C35.6338 12.038 36.4756 11.6669 36.208 10.708C35.9834 9.90425 35.6006 9.03218 34.669 9.46577C34.0762 9.74116 33.2363 10.4423 33.167 11.1376C33.0879 11.9267 34.252 12.038 34.8047 12.038ZM34.1426 16.2343C34.9893 16.7412 36.2451 16.5029 36.8838 15.7792C37.3828 15.2128 37.6768 14.2294 38.5742 14.2304C38.9693 14.2296 39.3489 14.3843 39.6309 14.6611C40.002 15.0449 39.9287 15.4052 40.0078 15.8857C40.1846 16.9648 41.3418 15.9472 41.6436 15.5292C41.8389 15.2568 42.1035 14.8525 42.0147 14.498C41.9326 14.1669 41.5459 13.8144 41.374 13.5107C40.8721 12.6318 40.459 11.6093 39.707 10.8994C38.9834 10.2158 38.0938 10.2949 37.4072 11.0048C36.8447 11.5908 36.1914 12.0546 35.8066 12.7675C35.5352 13.2685 35.2295 13.5078 34.6797 13.6376C34.377 13.7089 34.0313 13.7353 33.7774 13.9384C33.0703 14.4951 33.4727 15.832 34.1426 16.2343Z" fill="#F99948"/>
</svg>
