<svg width="50" height="50" viewBox="0 0 50 50" fill="none" xmlns="http://www.w3.org/2000/svg">
<path d="M35.9375 3.125H14.0625C11.4737 3.125 9.375 5.22367 9.375 7.8125V42.1875C9.375 44.7763 11.4737 46.875 14.0625 46.875H35.9375C38.5263 46.875 40.625 44.7763 40.625 42.1875V7.8125C40.625 5.22367 38.5263 3.125 35.9375 3.125Z" stroke="#FE61B8" stroke-width="3.125" stroke-linejoin="round"/>
<path d="M20.3125 7.8125H29.6875" stroke="#FE61B8" stroke-width="3.125" stroke-linecap="round" stroke-linejoin="round"/>
<path d="M32.5664 27.7841C32.1979 27.3915 31.7515 27.08 31.2558 26.8697C30.7601 26.6593 30.226 26.5547 29.6875 26.5624C28.5547 26.5624 27.5303 26.9931 26.8028 27.7763C26.0752 28.5595 25.709 29.6435 25.793 30.8036C25.96 33.0966 27.7071 34.9608 29.6875 34.9608C31.668 34.9608 33.4121 33.0966 33.5811 30.8056C33.667 29.6552 33.3057 28.5819 32.5664 27.7841ZM36.2979 43.7499H23.0772C22.9051 43.7527 22.7345 43.7176 22.5774 43.6473C22.4203 43.5769 22.2805 43.4729 22.168 43.3427C22.046 43.1965 21.9584 43.0248 21.9118 42.8402C21.8651 42.6556 21.8606 42.4629 21.8985 42.2763C22.2159 40.5614 23.2051 39.121 24.7598 38.1103C26.1407 37.2128 27.8907 36.7187 29.6875 36.7187C31.4844 36.7187 33.2344 37.2128 34.6153 38.1103C36.17 39.121 37.1592 40.5614 37.4766 42.2763C37.5145 42.4629 37.51 42.6556 37.4633 42.8402C37.4167 43.0248 37.3291 43.1965 37.2071 43.3427C37.0945 43.4729 36.9548 43.5769 36.7977 43.6473C36.6406 43.7176 36.47 43.7527 36.2979 43.7499Z" fill="#FE61B8"/>
</svg>
