<svg width="24" height="25" viewBox="0 0 24 25" fill="none" xmlns="http://www.w3.org/2000/svg">
<path fill-rule="evenodd" clip-rule="evenodd" d="M19.4405 5.05161C18.4697 4.08039 17.3165 3.31077 16.0471 2.78706C14.7777 2.26334 13.4172 1.99587 12.0441 2.00005C6.28125 2.00005 1.59 6.66786 1.58766 12.4063C1.58511 14.2335 2.06676 16.0288 2.98359 17.6094L1.5 23.0001L7.04297 21.553C8.57729 22.3842 10.2948 22.8192 12.0398 22.8186H12.0441C17.8064 22.8186 22.4972 18.1504 22.5 12.4124C22.5035 11.0439 22.2348 9.68839 21.7095 8.42471C21.1843 7.16103 20.413 6.01442 19.4405 5.05161ZM12.0441 21.0622H12.0403C10.4847 21.0627 8.95739 20.6464 7.61719 19.8566L7.29984 19.6691L4.01062 20.5279L4.88859 17.3361L4.68187 17.008C3.81206 15.6309 3.35121 14.0351 3.35297 12.4063C3.35297 7.6377 7.25344 3.75786 12.0473 3.75786C14.347 3.75375 16.5542 4.66327 18.1833 6.28636C19.8125 7.90944 20.7302 10.1132 20.7347 12.4129C20.7328 17.1819 16.8342 21.0622 12.0441 21.0622ZM16.8108 14.5846C16.5497 14.4543 15.2639 13.8252 15.0258 13.7385C14.7877 13.6518 14.6119 13.6082 14.438 13.8688C14.2641 14.1294 13.763 14.7126 13.6106 14.8883C13.4583 15.0641 13.3059 15.0833 13.0448 14.953C12.7837 14.8227 11.9414 14.5485 10.9434 13.6625C10.1667 12.973 9.64266 12.1218 9.49031 11.8616C9.33797 11.6015 9.47391 11.4604 9.60469 11.331C9.72234 11.2143 9.86578 11.0272 9.99656 10.8754C10.1273 10.7235 10.1709 10.6147 10.2577 10.4413C10.3444 10.2679 10.3012 10.116 10.2361 9.98614C10.1709 9.8563 9.64828 8.57614 9.43078 8.05536C9.21844 7.54817 9.00328 7.61708 8.84297 7.60911C8.69062 7.60161 8.51484 7.59974 8.34187 7.59974C8.20965 7.60318 8.07955 7.63384 7.9597 7.68981C7.83985 7.74579 7.73283 7.82586 7.64531 7.92505C7.40578 8.18567 6.73078 8.81567 6.73078 10.0944C6.73078 11.3732 7.66828 12.6107 7.79766 12.7841C7.92703 12.9575 9.63984 15.584 12.2606 16.7104C12.7473 16.9188 13.2445 17.1015 13.7503 17.2579C14.3761 17.4557 14.9456 17.428 15.3956 17.361C15.8977 17.2865 16.9425 16.7319 17.1595 16.1244C17.3766 15.5169 17.377 14.9966 17.3119 14.8883C17.2467 14.7801 17.0723 14.7144 16.8108 14.5846Z" fill="#210D4A"/>
</svg>
