<svg width="50" height="50" viewBox="0 0 50 50" fill="none" xmlns="http://www.w3.org/2000/svg">
<path fill-rule="evenodd" clip-rule="evenodd" d="M24.7881 50C38.4782 50 49.5763 38.8071 49.5763 25C49.5763 11.1929 38.4782 0 24.7881 0C11.098 0 0 11.1929 0 25C0 38.8071 11.098 50 24.7881 50ZM3.81356 25C3.81356 13.9483 12.191 4.87302 22.8814 3.89993V6.88058C13.8319 7.84414 6.77966 15.5888 6.77966 25C6.77966 25.1433 6.7813 25.2861 6.78455 25.4286L22.4576 20.9206V24.1386L7.17172 28.7992C8.22675 33.8317 11.335 38.0966 15.5676 40.6541L14.3448 43.3777C8.05124 39.7208 3.81356 32.8603 3.81356 25ZM40.0067 15.2542H43.4168C40.1393 8.87532 33.7449 4.39304 26.2712 3.8657V4.66102V6.84056V25.2119V46.1864L29.661 45.617V27.8195L45.5508 22.6695L45.339 20.7627L44.9153 19.0678L36.4107 22.0112L29.661 24.2459V7.45454C33.9877 8.68211 37.6557 11.504 40.0067 15.2542Z" fill="white"/>
</svg>
