<svg width="50" height="50" viewBox="0 0 50 50" fill="none" xmlns="http://www.w3.org/2000/svg">
<path d="M35.9375 12.5H43.75M6.25 12.5H29.6875M35.9375 37.5H43.75M6.25 37.5H29.6875M20.3125 25H43.75M6.25 25H14.0625" stroke="#FE61B8" stroke-width="3.125" stroke-linecap="round" stroke-linejoin="round"/>
<path d="M32.8125 15.625C34.5384 15.625 35.9375 14.2259 35.9375 12.5C35.9375 10.7741 34.5384 9.375 32.8125 9.375C31.0866 9.375 29.6875 10.7741 29.6875 12.5C29.6875 14.2259 31.0866 15.625 32.8125 15.625Z" stroke="#FE61B8" stroke-width="3.125" stroke-linecap="round" stroke-linejoin="round"/>
<path d="M17.1875 28.125C18.9134 28.125 20.3125 26.7259 20.3125 25C20.3125 23.2741 18.9134 21.875 17.1875 21.875C15.4616 21.875 14.0625 23.2741 14.0625 25C14.0625 26.7259 15.4616 28.125 17.1875 28.125Z" stroke="#FE61B8" stroke-width="3.125" stroke-linecap="round" stroke-linejoin="round"/>
<path d="M32.8125 40.625C34.5384 40.625 35.9375 39.2259 35.9375 37.5C35.9375 35.7741 34.5384 34.375 32.8125 34.375C31.0866 34.375 29.6875 35.7741 29.6875 37.5C29.6875 39.2259 31.0866 40.625 32.8125 40.625Z" stroke="#FE61B8" stroke-width="3.125" stroke-linecap="round" stroke-linejoin="round"/>
</svg>
