<svg width="50" height="50" viewBox="0 0 50 50" fill="none" xmlns="http://www.w3.org/2000/svg">
<path d="M31.8457 22.6465L27.207 30.0196C27.0172 30.2826 26.7864 30.5134 26.5234 30.7031C25.8884 31.1461 25.1044 31.3208 24.3415 31.1893C23.5786 31.0577 22.8983 30.6306 22.4483 30.0007C21.9983 29.3707 21.8149 28.5886 21.938 27.8243C22.061 27.0599 22.4805 26.375 23.1054 25.918L30.4785 21.2793C30.6461 21.1625 30.8455 21.0999 31.0498 21.0999C31.2541 21.0999 31.4534 21.1625 31.621 21.2793C31.8315 21.4313 31.9733 21.6604 32.0154 21.9166C32.0575 22.1728 31.9965 22.4352 31.8457 22.6465Z" fill="#FBCF13"/>
<path d="M25 6.25C12.9199 6.25 3.12496 16.0352 3.12496 28.1152C3.11755 33.4598 5.07421 38.6208 8.62301 42.6172C8.73043 42.7344 8.82808 42.8516 8.93551 42.959C9.1666 43.2092 9.44713 43.4086 9.75933 43.5448C10.0715 43.6809 10.4086 43.7507 10.7492 43.7498C11.0898 43.7489 11.4264 43.6772 11.7379 43.5394C12.0494 43.4016 12.3288 43.2006 12.5586 42.9492C14.1421 41.2284 16.0653 39.8547 18.2068 38.9151C20.3483 37.9755 22.6614 37.4904 25 37.4904C27.3385 37.4904 29.6516 37.9755 31.7931 38.9151C33.9346 39.8547 35.8579 41.2284 37.4414 42.9492C37.6711 43.2006 37.9506 43.4016 38.262 43.5394C38.5735 43.6772 38.9102 43.7489 39.2507 43.7498C39.5913 43.7507 39.9284 43.6809 40.2406 43.5448C40.5528 43.4086 40.8333 43.2092 41.0644 42.959L41.3769 42.6172C44.9257 38.6208 46.8824 33.4598 46.875 28.1152C46.875 16.0352 37.08 6.25 25 6.25Z" stroke="#FBCF13" stroke-width="3.125" stroke-linecap="round" stroke-linejoin="round"/>
<path d="M24.9999 12.5V15.625M40.6249 28.125H37.4999M12.4999 28.125H9.37494M16.1611 19.2861L13.9511 17.0762M33.8388 19.2861L36.0488 17.0762" stroke="#FBCF13" stroke-width="3.125" stroke-miterlimit="10" stroke-linecap="round"/>
</svg>
