<svg width="24" height="24" viewBox="0 0 24 24" fill="none" xmlns="http://www.w3.org/2000/svg">
<path d="M18.4688 22.5C18.3109 22.5006 18.1569 22.4514 18.0286 22.3594L12 17.9887L5.97145 22.3594C5.84265 22.4528 5.68748 22.5028 5.52838 22.5022C5.36927 22.5017 5.21447 22.4505 5.08635 22.3561C4.95824 22.2618 4.86345 22.1291 4.81569 21.9774C4.76793 21.8256 4.76967 21.6626 4.82067 21.5119L7.17192 14.5476L1.07817 10.3687C0.946174 10.2783 0.846552 10.1481 0.793858 9.99699C0.741164 9.84593 0.738161 9.68197 0.785286 9.52907C0.832411 9.37618 0.927196 9.24236 1.05579 9.14717C1.18439 9.05198 1.34005 9.0004 1.50004 8.99998H9.01786L11.2866 2.01795C11.3355 1.86721 11.4308 1.73583 11.559 1.64264C11.6872 1.54946 11.8416 1.49927 12 1.49927C12.1585 1.49927 12.3129 1.54946 12.4411 1.64264C12.5692 1.73583 12.6646 1.86721 12.7135 2.01795L14.9822 9.00233H22.5C22.6602 9.00225 22.8162 9.05346 22.9452 9.14847C23.0742 9.24348 23.1694 9.37729 23.2168 9.5303C23.2642 9.68331 23.2614 9.84749 23.2088 9.99878C23.1561 10.1501 23.0564 10.2805 22.9243 10.3711L16.8282 14.5476L19.178 21.51C19.2161 21.6227 19.2268 21.7429 19.2093 21.8605C19.1917 21.9782 19.1464 22.09 19.0771 22.1868C19.0079 22.2835 18.9165 22.3623 18.8108 22.4168C18.705 22.4713 18.5878 22.4998 18.4688 22.5Z" fill="#FBCF13"/>
</svg>
