<svg width="50" height="50" viewBox="0 0 50 50" fill="none" xmlns="http://www.w3.org/2000/svg">
<path d="M34.375 14.0625H45.3125V25" stroke="#FE61B8" stroke-width="3.125" stroke-linecap="round" stroke-linejoin="round"/>
<path d="M4.6875 35.9375L16.54 24.085C16.8302 23.7947 17.1748 23.5645 17.5539 23.4074C17.9331 23.2503 18.3396 23.1694 18.75 23.1694C19.1604 23.1694 19.5669 23.2503 19.9461 23.4074C20.3252 23.5645 20.6698 23.7947 20.96 24.085L25.915 29.04C26.2052 29.3303 26.5498 29.5605 26.9289 29.7176C27.3081 29.8747 27.7146 29.9556 28.125 29.9556C28.5354 29.9556 28.9419 29.8747 29.3211 29.7176C29.7002 29.5605 30.0448 29.3303 30.335 29.04L43.75 15.625" stroke="#FE61B8" stroke-width="3.125" stroke-linecap="round" stroke-linejoin="round"/>
</svg>
